<svg width="99" height="87" viewBox="0 0 99 87" fill="none" xmlns="http://www.w3.org/2000/svg">
<path fill-rule="evenodd" clip-rule="evenodd" d="M95.9112 76.4241H2.17212C0.993991 76.4241 0.041687 75.2935 0.041687 73.8947V3.07116C0.041687 1.67492 0.993991 0.541748 2.17212 0.541748H95.9112C97.0894 0.541748 98.0417 1.67492 98.0417 3.07116V73.8947C98.0417 75.2935 97.0894 76.4241 95.9112 76.4241ZM93.7808 5.60057H4.30256V71.3653H93.7808V5.60057ZM42.6504 23.3065C43.1063 23.3065 43.5026 23.5139 43.8498 23.8022L60.4054 36.1255C61.2278 36.472 61.8243 37.3852 61.8243 38.4829C61.8243 39.305 61.4728 40.0031 60.9615 40.4635L43.9734 53.0625C43.6069 53.4166 43.1574 53.6594 42.6504 53.6594C41.4723 53.6594 40.5199 52.5287 40.5199 51.13V25.8359C40.5199 24.4396 41.4723 23.3065 42.6504 23.3065ZM29.8678 81.4829H68.2156C69.3937 81.4829 70.346 82.6136 70.346 84.0123C70.346 85.4111 69.3937 86.5417 68.2156 86.5417H29.8678C28.6896 86.5417 27.7373 85.4111 27.7373 84.0123C27.7373 82.6136 28.6896 81.4829 29.8678 81.4829Z" fill="white"/>
</svg>
