<svg width="99" height="87" viewBox="0 0 99 87" fill="none" xmlns="http://www.w3.org/2000/svg">
<path fill-rule="evenodd" clip-rule="evenodd" d="M98.0416 75.6881C98.0416 81.4825 93.2737 86.1775 87.3895 86.1775H10.6938C4.80954 86.1775 0.041626 81.4825 0.041626 75.6881V14.85C0.041626 10.2158 3.85723 6.45849 8.56336 6.45849H51.5364L68.7908 0.303341C69.8837 -0.0889605 71.0938 0.466975 71.4921 1.53899L73.3094 6.45849H80.9981C85.7043 6.45849 89.5199 10.2158 89.5199 14.85V19.0457C94.226 19.0457 98.0416 22.803 98.0416 27.4372V75.6881ZM8.56336 10.6542C6.21137 10.6542 4.3025 12.5339 4.3025 14.85C4.3025 17.166 6.21137 19.0457 8.56336 19.0457H15.9027H16.3054C16.3331 19.0352 16.3501 19.0121 16.3778 19.0016L39.7742 10.6542H8.56336ZM70.5121 11.0339L68.2496 4.89977H68.2475L63.878 6.45849H63.8844L52.1371 10.6542H52.1158L28.598 19.0457H73.4692L70.5121 11.0339ZM85.259 14.85C85.259 12.5339 83.3501 10.6542 80.9981 10.6542H74.8561L77.9538 19.0457H85.259V14.85ZM89.5199 23.2414H8.56336C7.00389 23.2414 5.55945 22.7988 4.3025 22.0771V75.6881C4.3025 79.1643 7.1658 81.9818 10.6938 81.9818H87.3895C90.9196 81.9818 93.7808 79.1643 93.7808 75.6881V61.0031H85.259C80.5529 61.0031 76.7373 57.2458 76.7373 52.6116C76.7373 47.9774 80.5529 44.2201 85.259 44.2201H93.7808V27.4372C93.7808 25.1211 91.8719 23.2414 89.5199 23.2414ZM93.7808 56.8073V48.4159H85.259C82.907 48.4159 80.9981 50.2956 80.9981 52.6116C80.9981 54.9276 82.907 56.8073 85.259 56.8073H93.7808ZM85.259 50.5137H89.5199V54.7095H85.259V50.5137Z" fill="white"/>
</svg>
