<svg width="99" height="87" viewBox="0 0 99 87" fill="none" xmlns="http://www.w3.org/2000/svg">
<path fill-rule="evenodd" clip-rule="evenodd" d="M89.5199 86.9584H8.56336C3.85723 86.9584 0.041626 82.9051 0.041626 77.9057V10.011C0.041626 5.01169 3.85723 0.958374 8.56336 0.958374H89.5199C94.226 0.958374 98.0416 5.01169 98.0416 10.011V77.9057C98.0416 82.9051 94.226 86.9584 89.5199 86.9584ZM93.7808 10.011C93.7808 7.51248 91.8719 5.48469 89.5199 5.48469H8.56336C6.21137 5.48469 4.3025 7.51248 4.3025 10.011V23.59H93.7808V10.011ZM93.7808 28.1163H4.3025V77.9057C4.3025 80.4043 6.21137 82.4321 8.56336 82.4321H89.5199C91.8719 82.4321 93.7808 80.4043 93.7808 77.9057V28.1163ZM85.259 59.8005H80.9981C79.8221 59.8005 78.8677 58.7888 78.8677 57.5373V53.011C78.8677 51.7617 79.8221 50.7478 80.9981 50.7478H85.259C86.4371 50.7478 87.3895 51.7617 87.3895 53.011V57.5373C87.3895 58.7888 86.4371 59.8005 85.259 59.8005ZM85.259 43.9584H80.9981C79.8221 43.9584 78.8677 42.9467 78.8677 41.6952V37.1689C78.8677 35.9174 79.8221 34.9057 80.9981 34.9057H85.259C86.4371 34.9057 87.3895 35.9174 87.3895 37.1689V41.6952C87.3895 42.9467 86.4371 43.9584 85.259 43.9584ZM68.2155 59.8005H63.9547C62.7787 59.8005 61.8242 58.7888 61.8242 57.5373V53.011C61.8242 51.7617 62.7787 50.7478 63.9547 50.7478H68.2155C69.3937 50.7478 70.346 51.7617 70.346 53.011V57.5373C70.346 58.7888 69.3937 59.8005 68.2155 59.8005ZM68.2155 43.9584H63.9547C62.7787 43.9584 61.8242 42.9467 61.8242 41.6952V37.1689C61.8242 35.9174 62.7787 34.9057 63.9547 34.9057H68.2155C69.3937 34.9057 70.346 35.9174 70.346 37.1689V41.6952C70.346 42.9467 69.3937 43.9584 68.2155 43.9584ZM51.1721 59.8005H46.9112C45.7331 59.8005 44.7808 58.7888 44.7808 57.5373V53.011C44.7808 51.7617 45.7331 50.7478 46.9112 50.7478H51.1721C52.3502 50.7478 53.3025 51.7617 53.3025 53.011V57.5373C53.3025 58.7888 52.3502 59.8005 51.1721 59.8005ZM51.1721 43.9584H46.9112C45.7331 43.9584 44.7808 42.9467 44.7808 41.6952V37.1689C44.7808 35.9174 45.7331 34.9057 46.9112 34.9057H51.1721C52.3502 34.9057 53.3025 35.9174 53.3025 37.1689V41.6952C53.3025 42.9467 52.3502 43.9584 51.1721 43.9584ZM34.1286 75.6426H29.8677C28.6896 75.6426 27.7373 74.631 27.7373 73.3794V68.8531C27.7373 67.6016 28.6896 66.59 29.8677 66.59H34.1286C35.3067 66.59 36.259 67.6016 36.259 68.8531V73.3794C36.259 74.631 35.3067 75.6426 34.1286 75.6426ZM34.1286 59.8005H29.8677C28.6896 59.8005 27.7373 58.7888 27.7373 57.5373V53.011C27.7373 51.7617 28.6896 50.7478 29.8677 50.7478H34.1286C35.3067 50.7478 36.259 51.7617 36.259 53.011V57.5373C36.259 58.7888 35.3067 59.8005 34.1286 59.8005ZM34.1286 43.9584H29.8677C28.6896 43.9584 27.7373 42.9467 27.7373 41.6952V37.1689C27.7373 35.9174 28.6896 34.9057 29.8677 34.9057H34.1286C35.3067 34.9057 36.259 35.9174 36.259 37.1689V41.6952C36.259 42.9467 35.3067 43.9584 34.1286 43.9584ZM17.0851 75.6426H12.8242C11.6461 75.6426 10.6938 74.631 10.6938 73.3794V68.8531C10.6938 67.6016 11.6461 66.59 12.8242 66.59H17.0851C18.2632 66.59 19.2155 67.6016 19.2155 68.8531V73.3794C19.2155 74.631 18.2632 75.6426 17.0851 75.6426ZM17.0851 59.8005H12.8242C11.6461 59.8005 10.6938 58.7888 10.6938 57.5373V53.011C10.6938 51.7617 11.6461 50.7478 12.8242 50.7478H17.0851C18.2632 50.7478 19.2155 51.7617 19.2155 53.011V57.5373C19.2155 58.7888 18.2632 59.8005 17.0851 59.8005ZM46.9112 66.59H51.1721C52.3502 66.59 53.3025 67.6016 53.3025 68.8531V73.3794C53.3025 74.631 52.3502 75.6426 51.1721 75.6426H46.9112C45.7331 75.6426 44.7808 74.631 44.7808 73.3794V68.8531C44.7808 67.6016 45.7331 66.59 46.9112 66.59Z" fill="white"/>
</svg>
