<svg width="130" height="57" viewBox="0 0 130 57" fill="none" xmlns="http://www.w3.org/2000/svg">
<path d="M11.02 49.8V52H0.7V50.26L6.26 44.98C6.88667 44.38 7.30667 43.86 7.52 43.42C7.74667 42.9667 7.86 42.52 7.86 42.08C7.86 41.4267 7.64 40.9267 7.2 40.58C6.76 40.2333 6.11333 40.06 5.26 40.06C3.83333 40.06 2.74 40.5467 1.98 41.52L0.16 40.12C0.706667 39.3867 1.44 38.82 2.36 38.42C3.29333 38.0067 4.33333 37.8 5.48 37.8C7 37.8 8.21333 38.16 9.12 38.88C10.0267 39.6 10.48 40.58 10.48 41.82C10.48 42.58 10.32 43.2933 10 43.96C9.68 44.6267 9.06667 45.3867 8.16 46.24L4.42 49.8H11.02ZM18.4806 43.78C19.774 43.94 20.7606 44.38 21.4406 45.1C22.1206 45.82 22.4606 46.72 22.4606 47.8C22.4606 48.6133 22.254 49.3533 21.8406 50.02C21.4273 50.6867 20.8006 51.22 19.9606 51.62C19.134 52.0067 18.1206 52.2 16.9206 52.2C15.9206 52.2 14.954 52.06 14.0206 51.78C13.1006 51.4867 12.314 51.0867 11.6606 50.58L12.7806 48.56C13.2873 48.9867 13.9006 49.3267 14.6206 49.58C15.354 49.82 16.1073 49.94 16.8806 49.94C17.8006 49.94 18.5206 49.7533 19.0406 49.38C19.574 48.9933 19.8406 48.4733 19.8406 47.82C19.8406 47.1667 19.5873 46.66 19.0806 46.3C18.5873 45.9267 17.8273 45.74 16.8006 45.74H15.5206V43.96L18.7006 40.18H12.3406V38H21.8806V39.74L18.4806 43.78ZM29.0013 41.2C30.5746 41.2 31.7746 41.58 32.6013 42.34C33.4413 43.0867 33.8613 44.22 33.8613 45.74V52H31.5013V50.7C31.1946 51.1667 30.7546 51.5267 30.1813 51.78C29.6213 52.02 28.9413 52.14 28.1413 52.14C27.3413 52.14 26.6413 52.0067 26.0413 51.74C25.4413 51.46 24.9746 51.08 24.6413 50.6C24.3213 50.1067 24.1613 49.5533 24.1613 48.94C24.1613 47.98 24.5146 47.2133 25.2213 46.64C25.9413 46.0533 27.0679 45.76 28.6013 45.76H31.3613V45.6C31.3613 44.8533 31.1346 44.28 30.6813 43.88C30.2413 43.48 29.5813 43.28 28.7013 43.28C28.1013 43.28 27.5079 43.3733 26.9213 43.56C26.3479 43.7467 25.8613 44.0067 25.4613 44.34L24.4813 42.52C25.0413 42.0933 25.7146 41.7667 26.5013 41.54C27.2879 41.3133 28.1213 41.2 29.0013 41.2ZM28.6613 50.32C29.2879 50.32 29.8413 50.18 30.3213 49.9C30.8146 49.6067 31.1613 49.1933 31.3613 48.66V47.42H28.7813C27.3413 47.42 26.6213 47.8933 26.6213 48.84C26.6213 49.2933 26.8013 49.6533 27.1613 49.92C27.5213 50.1867 28.0213 50.32 28.6613 50.32ZM43.1297 41.2C44.4764 41.2 45.5564 41.5933 46.3697 42.38C47.183 43.1667 47.5897 44.3333 47.5897 45.88V52H45.0897V46.2C45.0897 45.2667 44.8697 44.5667 44.4297 44.1C43.9897 43.62 43.363 43.38 42.5497 43.38C41.6297 43.38 40.903 43.66 40.3697 44.22C39.8364 44.7667 39.5697 45.56 39.5697 46.6V52H37.0697V41.32H39.4497V42.7C39.863 42.2067 40.383 41.8333 41.0097 41.58C41.6364 41.3267 42.343 41.2 43.1297 41.2ZM61.3188 37.16V52H58.9188V50.62C58.5054 51.1267 57.9921 51.5067 57.3788 51.76C56.7788 52.0133 56.1121 52.14 55.3788 52.14C54.3521 52.14 53.4254 51.9133 52.5988 51.46C51.7854 51.0067 51.1454 50.3667 50.6788 49.54C50.2121 48.7 49.9788 47.74 49.9788 46.66C49.9788 45.58 50.2121 44.6267 50.6788 43.8C51.1454 42.9733 51.7854 42.3333 52.5988 41.88C53.4254 41.4267 54.3521 41.2 55.3788 41.2C56.0854 41.2 56.7321 41.32 57.3188 41.56C57.9054 41.8 58.4054 42.16 58.8188 42.64V37.16H61.3188ZM55.6788 50C56.2788 50 56.8188 49.8667 57.2988 49.6C57.7788 49.32 58.1588 48.9267 58.4388 48.42C58.7188 47.9133 58.8588 47.3267 58.8588 46.66C58.8588 45.9933 58.7188 45.4067 58.4388 44.9C58.1588 44.3933 57.7788 44.0067 57.2988 43.74C56.8188 43.46 56.2788 43.32 55.6788 43.32C55.0788 43.32 54.5388 43.46 54.0588 43.74C53.5788 44.0067 53.1988 44.3933 52.9188 44.9C52.6388 45.4067 52.4988 45.9933 52.4988 46.66C52.4988 47.3267 52.6388 47.9133 52.9188 48.42C53.1988 48.9267 53.5788 49.32 54.0588 49.6C54.5388 49.8667 55.0788 50 55.6788 50ZM78.0692 41.2C79.4159 41.2 80.4826 41.5933 81.2692 42.38C82.0559 43.1533 82.4492 44.32 82.4492 45.88V52H79.9492V46.2C79.9492 45.2667 79.7426 44.5667 79.3292 44.1C78.9159 43.62 78.3226 43.38 77.5492 43.38C76.7092 43.38 76.0359 43.66 75.5292 44.22C75.0226 44.7667 74.7692 45.5533 74.7692 46.58V52H72.2692V46.2C72.2692 45.2667 72.0626 44.5667 71.6492 44.1C71.2359 43.62 70.6426 43.38 69.8692 43.38C69.0159 43.38 68.3359 43.6533 67.8292 44.2C67.3359 44.7467 67.0892 45.54 67.0892 46.58V52H64.5892V41.32H66.9692V42.68C67.3692 42.2 67.8692 41.8333 68.4692 41.58C69.0692 41.3267 69.7359 41.2 70.4692 41.2C71.2692 41.2 71.9759 41.3533 72.5892 41.66C73.2159 41.9533 73.7092 42.3933 74.0692 42.98C74.5092 42.42 75.0759 41.9867 75.7692 41.68C76.4626 41.36 77.2292 41.2 78.0692 41.2ZM95.7816 46.72C95.7816 46.8933 95.7682 47.14 95.7416 47.46H87.3616C87.5082 48.2467 87.8882 48.8733 88.5016 49.34C89.1282 49.7933 89.9016 50.02 90.8216 50.02C91.9949 50.02 92.9616 49.6333 93.7216 48.86L95.0616 50.4C94.5816 50.9733 93.9749 51.4067 93.2416 51.7C92.5082 51.9933 91.6816 52.14 90.7616 52.14C89.5882 52.14 88.5549 51.9067 87.6616 51.44C86.7682 50.9733 86.0749 50.3267 85.5816 49.5C85.1016 48.66 84.8616 47.7133 84.8616 46.66C84.8616 45.62 85.0949 44.6867 85.5616 43.86C86.0416 43.02 86.7016 42.3667 87.5416 41.9C88.3816 41.4333 89.3282 41.2 90.3816 41.2C91.4216 41.2 92.3482 41.4333 93.1616 41.9C93.9882 42.3533 94.6282 43 95.0816 43.84C95.5482 44.6667 95.7816 45.6267 95.7816 46.72ZM90.3816 43.2C89.5816 43.2 88.9016 43.44 88.3416 43.92C87.7949 44.3867 87.4616 45.0133 87.3416 45.8H93.4016C93.2949 45.0267 92.9682 44.4 92.4216 43.92C91.8749 43.44 91.1949 43.2 90.3816 43.2Z" fill="white"/>
<rect width="10.9506" height="36.6949" rx="5.47531" transform="matrix(0.84063 0.54161 -0.633432 0.773799 114.877 0)" fill="#00CCF8"/>
<rect width="9.8642" height="36.6949" rx="4.9321" transform="matrix(0.840631 0.541608 -0.633434 0.773797 120.867 19.9478)" fill="#00CC80"/>
</svg>
