<svg width="563" height="290" viewBox="0 0 563 290" fill="none" xmlns="http://www.w3.org/2000/svg">
<path d="M69.4407 130.959L108.278 106.911L145.373 130.959L107.407 157.432L69.4407 130.959Z" fill="#4EEDFF"/>
<path d="M69.5782 181.682V130.959L107.232 157.23V208.154L69.5782 181.682Z" fill="#00CCF8"/>
<path d="M74.6337 146.259V142.276L77.4229 144.339V148.338L74.6337 146.259Z" fill="#D7E5E7"/>
<path d="M94.8553 160.405V156.422L100.608 160.405V164.303L94.8553 160.405Z" fill="#4EEDFF"/>
<path d="M94.8553 167.68V163.696L100.608 167.68V171.578L94.8553 167.68Z" fill="#4EEDFF"/>
<path d="M94.8553 175.763V171.78L100.608 175.763V179.661L94.8553 175.763Z" fill="#4EEDFF"/>
<path d="M94.8553 183.038V179.055L100.608 183.038V186.936L94.8553 183.038Z" fill="#4EEDFF"/>
<path d="M94.8553 191.121V187.138L100.608 191.121V195.019L94.8553 191.121Z" fill="#4EEDFF"/>
<path d="M79.1662 149.55V145.913L90.6717 153.999V157.634L79.1662 149.55Z" fill="#006084"/>
<path d="M79.1662 156.95V153.188L90.6717 161.553V165.313L79.1662 156.95Z" fill="#006084"/>
<path d="M79.1662 164.629V160.867L90.6717 169.232V172.992L79.1662 164.629Z" fill="#006084"/>
<path d="M79.1662 172.713V168.951L90.6717 177.315V181.075L79.1662 172.713Z" fill="#006084"/>
<path d="M79.1662 180.796V177.034L90.6717 185.398V189.159L79.1662 180.796Z" fill="#006084"/>
<path d="M74.6337 154.077V150.359L77.4229 152.285V156.017L74.6337 154.077Z" fill="#D7E5E7"/>
<path d="M74.6337 162.16V158.442L77.4229 160.368V164.101L74.6337 162.16Z" fill="#D7E5E7"/>
<path d="M74.6337 169.978V166.526L77.4229 168.314V171.78L74.6337 169.978Z" fill="#D7E5E7"/>
<path d="M74.6337 178.188V174.205L77.4229 176.268V180.267L74.6337 178.188Z" fill="#D7E5E7"/>
<path d="M145.061 181.682V130.959L107.058 157.23V208.154L145.061 181.682Z" fill="#006084"/>
<path d="M134.95 151.572V147.126L123.445 154.401V158.846L134.95 151.572Z" fill="#4EEDFF"/>
<path d="M139.831 147.876V143.892L137.042 145.956V149.955L139.831 147.876Z" fill="#D7E5E7"/>
<ellipse rx="7.34226" ry="10.6879" transform="matrix(0.98899 0.147981 -0.110664 0.993858 126.311 172.576)" fill="#004159"/>
<path d="M563 285.321H198.525V165.728H563V285.321Z" fill="url(#paint0_angular)"/>
<path d="M3 48.9819L166.254 138.677" stroke="#00CCF8" stroke-width="5" stroke-linecap="round" stroke-linejoin="round" stroke-dasharray="25 15"/>
<path d="M97.0663 104.033L202.797 47.5581L303.781 104.033L200.424 166.202L97.0663 104.033Z" fill="#4EEDFF"/>
<path d="M97.4407 223.151V104.033L199.949 165.728V285.321L97.4407 223.151Z" fill="#00CCF8"/>
<path d="M111.203 139.964V130.609L118.797 135.454V144.846L111.203 139.964Z" fill="#D7E5E7"/>
<path d="M166.254 173.184V163.829L181.915 173.184V182.338L166.254 173.184Z" fill="#4EEDFF"/>
<path d="M166.254 190.269V180.914L181.915 190.269V199.423L166.254 190.269Z" fill="#4EEDFF"/>
<path d="M166.254 209.252V199.897L181.915 209.252V218.406L166.254 209.252Z" fill="#4EEDFF"/>
<path d="M166.254 226.337V216.982L181.915 226.337V235.49L166.254 226.337Z" fill="#4EEDFF"/>
<path d="M166.254 245.32V235.965L181.915 245.32V254.473L166.254 245.32Z" fill="#4EEDFF"/>
<path d="M123.542 147.692V139.151L154.864 158.14V166.677L123.542 147.692Z" fill="#006084"/>
<path d="M123.542 165.071V156.236L154.864 175.88V184.711L123.542 165.071Z" fill="#006084"/>
<path d="M123.542 183.105V174.27L154.864 193.914V202.745L123.542 183.105Z" fill="#006084"/>
<path d="M123.542 202.088V193.253L154.864 212.897V221.728L123.542 202.088Z" fill="#006084"/>
<path d="M123.542 221.071V212.236L154.864 231.88V240.711L123.542 221.071Z" fill="#006084"/>
<path d="M111.203 158.323V149.592L118.797 154.114V162.88L111.203 158.323Z" fill="#D7E5E7"/>
<path d="M111.203 177.306V168.575L118.797 173.097V181.863L111.203 177.306Z" fill="#D7E5E7"/>
<path d="M111.203 195.666V187.558L118.797 191.757V199.897L111.203 195.666Z" fill="#D7E5E7"/>
<path d="M111.203 214.947V205.592L118.797 210.437V219.829L111.203 214.947Z" fill="#D7E5E7"/>
<path d="M302.932 223.151V104.033L199.475 165.728V285.321L302.932 223.151Z" fill="#006084"/>
<path d="M275.407 152.44V141.999L244.085 159.084V169.524L275.407 152.44Z" fill="#4EEDFF"/>
<path d="M288.695 143.76V134.406L281.102 139.251V148.643L288.695 143.76Z" fill="#D7E5E7"/>
<ellipse cx="251.886" cy="201.767" rx="19.9322" ry="25.1525" transform="rotate(7.35488 251.886 201.767)" fill="#004159"/>
<path d="M244.085 197.524L407.339 287.219" stroke="#00CCF8" stroke-width="5" stroke-linecap="round" stroke-linejoin="round" stroke-dasharray="25 15"/>
<defs>
<radialGradient id="paint0_angular" cx="0" cy="0" r="1" gradientUnits="userSpaceOnUse" gradientTransform="translate(380.763 225.524) rotate(90) scale(59.7966 527.729)">
<stop offset="0.0307059" stop-color="#C4C4C4" stop-opacity="0"/>
<stop offset="0.0523194" stop-color="#C4C4C4" stop-opacity="0.611242"/>
<stop offset="0.121264" stop-color="#C4C4C4"/>
<stop offset="0.493639" stop-color="#C4C4C4" stop-opacity="0"/>
<stop offset="0.532877" stop-color="white" stop-opacity="0"/>
<stop offset="0.619094" stop-color="#C4C4C4" stop-opacity="0"/>
</radialGradient>
</defs>
</svg>
